# AST/ASF file generated using VICON BodyLanguage
# -----------------------------------------------
:version 1.10
:name VICON
:units
  mass 1.0
  length 0.45
  angle deg
:documentation
   .ast/.asf automatically generated from VICON data using
   VICON BodyBuilder and BodyLanguage model FoxedUp or BRILLIANT.MOD
:root
   order TX TY TZ RX RY RZ
   axis XYZ
   position 0 0 0  
   orientation 0 0 0 
:bonedata
  begin
     id 1 
     name lhipjoint
     direction 0.547975 -0.797114 0.253638 
     length 2.36201 
     axis 0 0 0  XYZ
  end
  begin
     id 2 
     name lfemur
     direction 0.34202 -0.939693 0  
     length 7.69075  
     axis 0 0 20  XYZ
    dof rx ry rz
    limits (-160.0 20.0)
           (-70.0 70.0)
           (-60.0 70.0)
  end
  begin
     id 3 
     name ltibia
     direction 0.34202 -0.939693 0   
     length 7.91399   
     axis 0 0 20   XYZ
    dof rx
    limits (-10.0 170.0)
  end
  begin
     id 4 
     name lfoot
     direction 0.0705293 -0.193778 0.978507   
     length 2.13618   
     axis -90 7.62852e-016 20   XYZ
    dof rx rz
    limits (-45.0 90.0)
           (-70.0 20.0)
  end
  begin
     id 5 
     name ltoes
     direction 1.53592e-011 -4.21925e-011 1   
     length 1.07518   
     axis -90 7.62852e-016 20   XYZ
    dof rx
    limits (-90.0 20.0)
  end
  begin
     id 6 
     name rhipjoint
     direction -0.57 -0.782963 0.249136   
     length 2.4047  
     axis 0 0 0  XYZ 
  end
  begin
     id 7 
     name rfemur
     direction -0.34202 -0.939693 0   
     length 7.51486   
     axis 0 0 -20   XYZ
    dof rx ry rz
    limits (-160.0 20.0)
           (-70.0 70.0)
           (-70.0 60.0)
  end
  begin
     id 8 
     name rtibia
     direction -0.34202 -0.939693 0   
     length 8.08317   
     axis 0 0 -20   XYZ
    dof rx
    limits (-10.0 170.0)
 end
 begin
     id 9 
     name rfoot
     direction -0.104954 -0.281256 0.953876   
     length 2.30343  
     axis -90 -7.62852e-016 -20   XYZ
    dof rx rz
    limits (-45.0 90.0)
           (-20.0 70.0)
  end
  begin
     id 10 
     name rtoes
     direction -1.53556e-011 -4.21922e-011 1   
     length 1.14803   
     axis -90 -7.62852e-016 -20   XYZ
    dof rx
    limits (-90.0 20.0)
  end
  begin
     id 11 
     name lowerback
     direction -0.0152855 0.99353 -0.11254   
     length 2.05311   
     axis 0 0 0   XYZ
    dof rx ry rz
    limits (-20.0 45.0)
           (-30.0 30.0)
           (-30.0 30.0)
  end
  begin
     id 12 
     name upperback
     direction -0.00157509 0.999443 -0.033332   
     length 2.06353   
     axis 0 0 0   XYZ
    dof rx ry rz
    limits (-20.0 45.0)
           (-30.0 30.0)
           (-30.0 30.0)
  end
  begin
     id 13 
     name thorax
     direction 0.00577788 0.999804 0.0189484   
     length 2.08472   
     axis 0 0 0   XYZ
    dof rx ry rz
    limits (-20.0 45.0)
           (-30.0 30.0)
           (-30.0 30.0)
  end
  begin
     id 14 
     name lowerneck
     direction -1.09301e-005 0.994719 0.10264   
     length 1.76249   
     axis 0 0 0   XYZ
    dof rx ry rz
    limits (-20.0 45.0)
           (-30.0 30.0)
           (-30.0 30.0)
  end
  begin
     id 15 
     name upperneck
     direction 0.0495018 0.988526 -0.142706   
     length 1.77897   
     axis 0 0 0   XYZ
    dof rx ry rz
    limits (-20.0 45.0)
           (-30.0 30.0)
           (-30.0 30.0)
  end
  begin
     id 16
     name head
     direction 0.0142736 0.998114 -0.0597101  
     length 1.78934  
     axis 0 0 0   XYZ
    dof rx ry rz
    limits (-20.0 45.0)
           (-30.0 30.0)
           (-30.0 30.0)
  end
  begin
     id 17 
     name lclavicle
     direction 0.918111 0.396107 -0.0130883  
     length 3.37276  
     axis 0 0 0   XYZ
    dof ry rz
    limits (-20.0 10.0)
           (0.0 20.0)
  end
  begin
     id 18 
     name lhumerus
     direction 1 -4.48975e-011 -3.26108e-027   
     length 5.34298   
     axis 180 -30 -90   XYZ
    dof rx ry rz
    limits (-60.0 90.0)
           (-90.0 90.0)
           (-90.0 90.0)
  end
  begin
     id 19
     name lradius
     direction 1 -4.48964e-011 -8.84413e-028   
     length 3.67262   
     axis 180 -30 -90   XYZ
    dof rx
    limits (-10.0 170.0)
  end
  begin
     id 20
     name lwrist
     direction 1 -4.48991e-011 -1.24264e-027   
     length 1.83631   
     axis -2.17013e-015 90 90   XYZ
    dof ry
    limits (-180.0 0.0)
 end
  begin
     id 21 
     name lhand
     direction 1 -4.48855e-011 -2.48528e-027   
     length 0.599298   
     axis 1.58582e-015 90 90   XYZ
    dof rx rz
    limits (-90.0 90.0)
           (-45.0 45.0)
  end
  begin
     id 22 
     name lfingers
     direction 1 -4.48811e-011 -4.97056e-027   
     length 0.48317   
     axis 3.17164e-015 90 90   XYZ
    dof rx
    limits (0.0 90.0)
  end
  begin
     id 23
     name lthumb
     direction 0.707107 -6.34882e-011 0.707107   
     length 0.693738   
     axis -90 45 2.85299e-015   XYZ
    dof rx rz
    limits (-45.0 45.0)
           (-45.0 45.0)
  end
  begin
     id 24 
     name rclavicle
     direction -0.920511 0.384752 -0.0680135   
     length 3.43787  
     axis 0 0 0   XYZ 
    dof ry rz
    limits (-10.0 20.0)
           (-20.0 0.0)
  end
  begin
     id 25 
     name rhumerus
     direction -0.999976 -0.00330524 0.00603274  
     length 5.5498   
     axis 180 30 90   XYZ
    dof rx ry rz
    limits (-90.0 60.0)
           (-90.0 90.0)
           (-90.0 90.0)
  end
  begin
     id 26 
     name rradius
     direction -1 -4.48967e-011 8.62438e-027   
     length 3.69401   
     axis 180 30 90   XYZ
    dof rx
    limits (-10.0 170.0)
  end
  begin
     id 27 
     name rwrist
     direction -1 -4.4897e-011 9.54866e-027   
     length 1.84701   
     axis -7.69462e-015 -90 -90   XYZ
    dof ry
    limits (-180.0 0.0)
  end
  begin
     id 28
     name rhand
     direction -1 -4.48982e-011 1.90973e-026   
     length 0.638113   
     axis -1.21857e-014 -90 -90   XYZ
    dof rx rz
    limits (-90.0 90.0)
           (-45.0 45.0)
  end
  begin
     id 29
     name rfingers
     direction -1 -4.48936e-011 3.81946e-026   
     length 0.514463   
     axis -2.43714e-014 -90 -90   XYZ
    dof rx
    limits (0.0 90.0)
  end
  begin
     id 30
     name rthumb
     direction -0.707107 -6.34942e-011 0.707107   
     length 0.738669   
     axis -90 -45 -2.85299e-015   XYZ
    dof rx rz
    limits (-45.0 45.0)
           (-45.0 45.0)
  end
:hierarchy
  begin
    root lhipjoint rhipjoint lowerback
    lhipjoint lfemur
    lfemur ltibia
    ltibia lfoot
    lfoot ltoes
    rhipjoint rfemur
    rfemur rtibia
    rtibia rfoot
    rfoot rtoes
    lowerback upperback
    upperback thorax
    thorax lowerneck lclavicle rclavicle
    lowerneck upperneck
    upperneck head
    lclavicle lhumerus
    lhumerus lradius
    lradius lwrist
    lwrist lhand lthumb
    lhand lfingers
    rclavicle rhumerus
    rhumerus rradius
    rradius rwrist
    rwrist rhand rthumb
    rhand rfingers
  end

#!OML:ASF F:\twosubjects\two\Thursday\Session 1\Rory.ASF
:FULLY-SPECIFIED
:DEGREES
145
root -0.529821 18.5233 4.641 3.34198 11.9284 2.09201
lowerback 2.27834 4.55867 -5.71764
upperback 2.27651 6.01659 -2.63464
thorax 0.774414 2.95713 0.361859
lowerneck 5.4452 20.3474 12.5417
upperneck 6.53037 29.1984 -16.5899
head 5.39158 14.5239 -5.00281
rclavicle -4.26393e-014 -2.38542e-014
rhumerus -39.819 -18.9533 -73.8876
rradius 35.5009
rwrist 17.1516
rhand -20.7826 24.4047
rfingers 7.12502
rthumb 5.58422 -5.50172
lclavicle -4.26393e-014 -2.38542e-014
lhumerus -28.352 23.547 77.0884
lradius 18.8267
lwrist -32.0669
lhand -11.6543 31.2907
lfingers 7.12502
lthumb 14.3901 60.7719
rfemur -2.80357 -0.213693 11.326
rtibia 47.5954
rfoot 13.4438 -6.56771
rtoes -8.13426
lfemur -18.3555 -5.24172 -23.4688
ltibia 23.2841
lfoot -6.33008 -4.04992
ltoes 2.3726
146
root -0.491399 18.5216 4.7773 3.19997 11.8698 2.446
lowerback 2.43804 4.61274 -6.05368
upperback 2.37445 6.07623 -2.71866
thorax 0.759979 2.9822 0.447272
lowerneck 5.62864 20.4882 12.5461
upperneck 6.43435 29.4083 -16.7155
head 5.3845 14.6366 -5.02895
rclavicle 5.4467e-014 8.74653e-015
rhumerus -39.8099 -19.1741 -73.8799
rradius 35.1048
rwrist 17.0194
rhand -20.9738 24.0121
rfingers 7.12502
rthumb 5.39968 -5.89912
lclavicle 5.4467e-014 8.74653e-015
lhumerus -28.3044 23.8511 76.6701
lradius 18.7606
lwrist -32.4548
lhand -11.6649 30.781
lfingers 7.12502
lthumb 14.3799 60.2629
rfemur -3.84705 -0.105836 10.9519
rtibia 49.7324
rfoot 14.4146 -6.74265
rtoes -5.10832
lfemur -17.5344 -4.86018 -23.976
ltibia 23.1093
lfoot -6.71322 -4.38629
ltoes 3.6265
147
root -0.461782 18.514 4.91788 2.99597 11.9037 2.76148
lowerback 2.63581 4.62419 -6.52672
upperback 2.49133 6.07206 -2.68397
thorax 0.720798 2.97251 0.726938
lowerneck 5.9233 20.6552 12.3871
upperneck 6.17396 29.6456 -16.9709
head 5.31078 14.7703 -5.09167
rclavicle -1.22253e-014 -1.43125e-014
rhumerus -39.5897 -19.2121 -73.8004
rradius 34.3429
rwrist 17.43
rhand -21.4936 24.0467
rfingers 7.12502
rthumb 4.89776 -5.87672
lclavicle -1.22253e-014 -1.43125e-014
lhumerus -28.364 23.3378 76.7055
lradius 19.1544
lwrist -31.7872
lhand -11.2968 30.5989
lfingers 7.12502
lthumb 14.7346 60.0552
rfemur -4.74162 -0.0360517 10.7189
rtibia 51.7094
rfoot 14.2851 -5.76766
rtoes -5.52756
lfemur -16.6005 -4.78559 -24.3866
ltibia 22.8875
lfoot -7.10925 -4.50851
ltoes 4.28537
148
root -0.4287 18.519 5.05878 2.88418 12.1525 2.94086
lowerback 2.88295 4.57677 -6.69122
upperback 2.54035 5.986 -2.69698
thorax 0.624478 2.92933 0.786738
lowerneck 5.93325 20.9592 11.8105
upperneck 5.93319 29.9721 -16.8092
head 5.17263 14.9317 -4.96526
rclavicle 2.0773e-014 9.54166e-015
rhumerus -39.534 -19.4796 -73.7362
rradius 33.7815
rwrist 18.1663
rhand -21.5931 24.1037
rfingers 7.12502
rthumb 4.80163 -5.82188
lclavicle 2.0773e-014 9.54166e-015
lhumerus -28.295 23.4184 76.4613
lradius 19.0686
lwrist -31.7486
lhand -10.3669 31.0251
lfingers 7.12502
lthumb 15.6303 60.4136
rfemur -5.75774 -0.0486722 10.6712
rtibia 53.5754
rfoot 13.7011 -4.65373
rtoes -6.00034
lfemur -15.6735 -4.92932 -24.6587
ltibia 22.5196
lfoot -7.49229 -4.56265
ltoes 3.82707
149
root -0.388949 18.5393 5.19972 2.90854 12.3666 3.20813
lowerback 3.10591 4.60443 -6.72368
upperback 2.48678 5.99907 -2.87229
thorax 0.459764 2.94237 0.602677
lowerneck 5.51705 20.8644 11.984
upperneck 6.55685 29.8823 -16.4842
head 5.39081 14.8506 -4.83068
rclavicle -6.05299e-014 1.35174e-014
rhumerus -39.7195 -19.8899 -73.7271
rradius 33.4484
rwrist 18.4715
rhand -21.3367 24.3594
rfingers 7.12502
rthumb 5.04923 -5.56049
lclavicle -6.05299e-014 1.35174e-014
lhumerus -27.9221 24.1498 75.8295
lradius 18.1098
lwrist -32.8065
lhand -9.63293 32.2623
lfingers 7.12502
lthumb 16.3371 61.5942
rfemur -7.01503 -0.0847217 10.4458
rtibia 55.3453
rfoot 13.1481 -4.37556
rtoes -4.88607
lfemur -14.8048 -5.26207 -25.029
ltibia 21.9482
lfoot -7.6939 -4.3985
ltoes 3.60621
150
root -0.347666 18.5668 5.33887 2.99807 12.5398 3.45732
lowerback 3.18288 4.62747 -6.818
upperback 2.44421 6.01804 -2.96634
thorax 0.372775 2.95454 0.547834
lowerneck 5.49262 20.8816 11.897
upperneck 6.72109 29.9067 -16.3258
head 5.41108 14.8571 -4.76898
rclavicle -9.99887e-014 3.18055e-015
rhumerus -39.7195 -20.0237 -73.6971
rradius 33.06
rwrist 18.6396
rhand -21.0559 24.7722
rfingers 7.12502
rthumb 5.32037 -5.14099
lclavicle -9.99887e-014 3.18055e-015
lhumerus -27.5728 24.7467 75.3902
lradius 17.2164
lwrist -33.8744
lhand -10.1421 32.69
lfingers 7.12502
lthumb 15.8468 62.0615
rfemur -8.36689 -0.0359662 10.2749
rtibia 56.9512
rfoot 12.0208 -4.23197
rtoes -6.88485
lfemur -13.9742 -5.61489 -25.3736
ltibia 21.2374
lfoot -7.7592 -4.19713
ltoes 3.53448
151
root -0.3103 18.5845 5.47598 3.04546 12.7922 3.53395
lowerback 3.15576 4.53121 -6.91963
upperback 2.52005 5.89496 -2.88008
thorax 0.45494 2.88783 0.702689
lowerneck 5.62996 20.9672 12.0844
upperneck 6.60451 30.1256 -17.0177
head 5.52518 14.9647 -4.94904
rclavicle 1.30204e-014 -2.46493e-014
rhumerus -39.4862 -20.1302 -73.6277
rradius 32.6649
rwrist 19.4138
rhand -20.764 25.2958
rfingers 7.12502
rthumb 5.60217 -4.61016
lclavicle 1.30204e-014 -2.46493e-014
lhumerus -27.4511 25.1273 75.2443
lradius 17.2426
lwrist -34.3723
lhand -11.005 31.9337
lfingers 7.12502
lthumb 15.0157 61.3693
rfemur -9.58661 -0.0758217 10.3545
rtibia 58.3539
rfoot 10.6396 -3.89871
rtoes -11.5461
lfemur -13.146 -5.83565 -25.5236
ltibia 20.5563
lfoot -7.86069 -4.28285
ltoes 3.17788
152
root -0.267809 18.5928 5.61666 3.07935 12.9974 3.72086
lowerback 3.12765 4.44231 -6.99361
upperback 2.63145 5.78585 -2.87813
thorax 0.585939 2.82722 0.757663
lowerneck 5.64002 21.0572 12.4536
upperneck 6.57567 30.384 -17.8105
head 5.73939 15.0815 -5.14301
rclavicle -4.16454e-014 5.48646e-014
rhumerus -39.295 -20.3586 -73.5822
rradius 32.36
rwrist 20.2289
rhand -20.3986 25.4203
rfingers 7.12502
rthumb 5.95497 -4.47605
lclavicle -4.16454e-014 5.48646e-014
lhumerus -27.5025 24.8586 75.2591
lradius 17.7579
lwrist -34.0047
lhand -10.9518 32.005
lfingers 7.12502
lthumb 15.0669 61.4367
rfemur -10.6587 -0.312561 10.2046
rtibia 59.549
rfoot 2.27531 0.0154057
rtoes -16.3632
lfemur -12.2846 -6.07336 -25.8253
ltibia 19.9965
lfoot -8.07272 -4.32519
ltoes 3.29726
153
root -0.223933 18.5988 5.76246 3.17274 13.1767 3.97549
lowerback 3.02582 4.40046 -7.0955
upperback 2.67237 5.74201 -2.93765
thorax 0.684907 2.80126 0.764583
lowerneck 5.51355 21.1613 12.5808
upperneck 6.81129 30.5896 -17.9339
head 5.90454 15.1631 -5.12465
rclavicle 2.68359e-014 7.95139e-015
rhumerus -39.2709 -20.4172 -73.5703
rradius 32.2892
rwrist 20.5905
rhand -19.238 24.5586
rfingers 7.12502
rthumb 7.07538 -5.30318
lclavicle 2.68359e-014 7.95139e-015
lhumerus -27.6514 24.1992 75.3268
lradius 18.1314
lwrist -33.091
lhand -10.5844 32.876
lfingers 7.12502
lthumb 15.4208 62.2808
rfemur -11.6386 -0.616645 9.95295
rtibia 60.5231
rfoot 6.0514 -4.25682
rtoes -4.54488
lfemur -11.5092 -6.27953 -26.2058
ltibia 19.5289
lfoot -8.40373 -4.26642
ltoes 3.40737
